 <svg version="1.0" xmlns="http://www.w3.org/2000/svg"  width="300.000000pt" height="270.000000pt" viewBox="0 0 300.000000 270.000000"  preserveAspectRatio="xMidYMid meet">  <g transform="translate(0.000000,270.000000) scale(0.100000,-0.100000)" fill="#000000" stroke="none"> <path d="M1668 2661 c-75 -24 -143 -65 -195 -117 -24 -24 -57 -45 -75 -49 -37 -8 -48 -20 -48 -52 0 -12 -18 -48 -40 -79 -22 -32 -40 -67 -40 -80 0 -25 29 -60 39 -47 4 4 23 33 44 64 20 30 48 66 62 79 l24 23 98 -31 c214 -67 236 -73 249 -68 28 11 13 37 -32 56 -25 11 -52 20 -60 20 -8 0 -38 12 -67 26 -28 14 -65 29 -82 33 -17 4 -31 14 -33 25 -5 27 45 75 108 104 58 26 212 54 251 46 142 -30 167 -48 204 -146 16 -42 33 -118 41 -180 12 -94 11 -114 -2 -165 -9 -32 -22 -87 -29 -123 -8 -36 -25 -116 -39 -178 -22 -99 -26 -139 -28 -340 l-3 -227 35 -69 c99 -195 248 -103 267 164 3 41 9 80 14 86 20 25 -59 617 -96 715 -3 8 -9 41 -14 74 -12 80 -29 143 -46 180 -7 17 -22 51 -33 76 -26 59 -71 111 -127 143 -94 56 -240 71 -347 37z m527 -1500 c7 -12 -12 -24 -25 -16 -11 7 -4 25 10 25 5 0 11 -4 15 -9z"/> <path d="M740 2313 c-199 -20 -380 -168 -458 -376 -18 -48 -22 -79 -22 -175 0 -170 37 -278 122 -358 70 -66 197 -144 236 -144 18 0 45 -6 60 -14 21 -11 105 -15 362 -20 184 -3 354 -9 378 -12 53 -8 75 -36 70 -90 -3 -33 -7 -39 -38 -49 l-35 -12 34 -31 c32 -29 33 -33 29 -87 -4 -44 -19 -85 -73 -191 -65 -128 -92 -163 -116 -148 -6 3 -54 12 -107 20 -179 26 -223 34 -242 44 -10 5 -34 10 -54 10 -19 0 -47 5 -63 11 -51 21 -725 68 -778 55 -54 -14 -14 -56 54 -56 26 0 70 -7 97 -15 33 -10 96 -15 196 -15 81 -1 162 -6 180 -11 18 -6 85 -12 148 -15 63 -3 144 -11 180 -19 59 -13 362 -65 500 -86 30 -5 82 -16 115 -25 65 -17 173 -41 245 -53 25 -4 61 -12 80 -19 19 -6 78 -23 130 -38 102 -29 232 -75 337 -120 17 -8 38 -14 47 -14 8 0 30 -6 48 -14 18 -8 105 -42 193 -76 88 -34 169 -65 180 -70 11 -5 58 -25 103 -45 96 -42 122 -37 72 14 -36 36 -72 53 -249 121 -69 27 -159 63 -200 80 -41 17 -140 53 -220 80 -80 27 -184 63 -231 80 -47 17 -100 36 -118 41 -31 10 -33 12 -18 28 27 30 21 59 -45 241 -69 189 -85 275 -51 287 67 23 81 33 76 48 -4 8 -18 18 -33 21 -63 14 -61 12 -61 74 0 73 27 103 113 124 18 4 27 13 27 26 0 17 -7 20 -52 20 -29 -1 -63 -6 -75 -13 -48 -27 -93 -113 -93 -178 0 -52 -29 -71 -102 -67 l-53 3 -6 63 c-4 40 -13 69 -25 83 -43 47 -58 49 -407 59 -340 10 -484 24 -571 55 -70 25 -134 94 -186 200 l-44 87 0 127 -1 127 44 86 c71 142 173 236 280 259 20 4 54 12 76 18 22 6 86 11 143 11 99 0 107 -2 218 -46 113 -44 154 -49 154 -19 0 13 -50 55 -65 55 -4 0 -21 6 -38 14 -98 43 -259 63 -397 49z m978 -1318 c6 -45 52 -192 78 -252 8 -17 14 -38 14 -46 0 -9 5 -19 10 -22 6 -3 10 -14 10 -24 0 -11 9 -38 20 -62 29 -64 27 -89 -7 -89 -16 1 -39 7 -53 15 -14 8 -45 14 -69 15 -24 0 -60 4 -80 9 -20 5 -74 17 -121 26 -47 9 -92 20 -100 25 -23 12 -14 47 25 94 60 74 117 241 100 295 -11 36 2 42 88 39 73 -3 82 -5 85 -23z"/> <path d="M1414 2026 c-12 -30 1 -61 25 -64 28 -4 41 12 41 51 0 23 -4 27 -30 27 -17 0 -33 -6 -36 -14z"/> <path d="M1627 2014 c-4 -4 -7 -18 -7 -30 0 -17 7 -25 26 -30 31 -8 47 6 42 37 -2 17 -10 25 -28 27 -14 2 -29 0 -33 -4z"/> <path d="M580 1903 c-19 -8 -41 -19 -49 -22 -40 -20 -37 -120 3 -147 30 -19 118 -33 169 -26 55 7 107 58 107 104 0 81 -133 134 -230 91z"/> </g> </svg>
